<svg aria-hidden="true" style="position:absolute;width:0;height:0;overflow:hidden" xmlns="http://www.w3.org/2000/svg"><defs><symbol id="icon-logo6" viewBox="0 0 32 32"><path  d="M16.145 15.628a.994.994 0 0 1-.206-.68v.003-.982c0-.301.068-.529.205-.686s.371-.234.703-.234c.312 0 .534.067.665.2.143.17.213.378.197.587v.231h-.558v-.234a1.161 1.161 0 0 0-.016-.228.226.226 0 0 0-.08-.136.317.317 0 0 0-.178-.054l-.025.001h.001l-.024-.001a.343.343 0 0 0-.19.057l.001-.001a.263.263 0 0 0-.092.148v.002a1.12 1.12 0 0 0-.022.224v.02-.001 1.191a.603.603 0 0 0 .072.334.257.257 0 0 0 .11.08l.002.001a.303.303 0 0 0 .145.019h-.001a.303.303 0 0 0 .198-.054l-.001.001a.24.24 0 0 0 .083-.143v-.001c.013-.079.019-.159.017-.239v-.242h.559v.221l.002.058a.895.895 0 0 1-.196.561l.001-.002c-.128.146-.347.219-.669.219s-.564-.078-.702-.24zm2.325.01c-.141-.153-.212-.376-.212-.67v-1.033c0-.292.07-.512.212-.662s.377-.224.708-.224c.328 0 .563.075.704.224.141.15.213.37.213.662v1.032c0 .292-.072.515-.215.669s-.377.23-.702.23-.565-.078-.708-.229zm.968-.247a.564.564 0 0 0 .067-.305v-1.264l.001-.034a.561.561 0 0 0-.068-.268l.001.003a.257.257 0 0 0-.112-.081l-.002-.001a.294.294 0 0 0-.149-.018h.002a.297.297 0 0 0-.15.019l.002-.001a.264.264 0 0 0-.114.082v.001a.545.545 0 0 0-.067.3v1.27a.57.57 0 0 0 .067.306.353.353 0 0 0 .118.076.391.391 0 0 0 .289-.001l-.003.001a.363.363 0 0 0 .118-.076v-.006zm1.329-2.31h.601l.452 1.905.463-1.905h.585l.059 2.749h-.433l-.046-1.911-.446 1.911h-.347l-.462-1.918-.043 1.918h-.437l.054-2.749zm2.835 0h.937c.54 0 .81.26.81.781 0 .498-.284.748-.852.747h-.319v1.222H23.6l.003-2.75zm.8 1.174c.057.006.115.002.17-.013s.106-.04.148-.074a.443.443 0 0 0 .083-.31l.001-.03a.837.837 0 0 0-.03-.225l.001.006a.203.203 0 0 0-.043-.076.238.238 0 0 0-.071-.055l-.001-.001a.598.598 0 0 0-.228-.045l-.032.001h.001-.224v.822h.225zm1.78-1.174h.621l.637 2.749h-.539l-.126-.634h-.554l-.129.634h-.547l.637-2.749zm.531 1.797-.216-1.154-.216 1.154h.432zm1.242-1.797h.405l.774 1.568v-1.568h.48v2.749h-.385l-.78-1.637v1.637h-.496l.001-2.749zm2.783 1.7-.644-1.697h.543l.393 1.09.369-1.09h.531l-.636 1.697v1.048h-.555V14.78zm-13.7 2.251v.144h-.472v1.117h-.198v-1.117h-.474v-.144h1.144zm1.479 1.261h-.157a.075.075 0 0 1-.039-.012.064.064 0 0 1-.025-.029l-.137-.3h-.655l-.136.3a.085.085 0 0 1-.021.034.067.067 0 0 1-.039.012h-.156l.578-1.261h.201l.586 1.256zm-.958-.468h.546l-.232-.513a.851.851 0 0 1-.041-.112l-.002-.006-.022.067-.021.053-.229.512zm1.955.344a.706.706 0 0 0 .284-.038c.026-.009.051-.02.077-.031v-.284h-.233a.048.048 0 0 1-.029-.01.028.028 0 0 1-.009-.01.02.02 0 0 1-.003-.011v-.098h.449v.483a.833.833 0 0 1-.238.101l-.006.001a1.025 1.025 0 0 1-.145.026 1.893 1.893 0 0 1-.169.008h-.007a.87.87 0 0 1-.29-.049l.006.002a.707.707 0 0 1-.232-.133l.001.001a.62.62 0 0 1-.148-.196l-.002-.004a.616.616 0 0 1-.053-.253v-.017c0-.092.019-.18.054-.26l-.002.004a.576.576 0 0 1 .149-.2.706.706 0 0 1 .232-.131 1.08 1.08 0 0 1 .471-.036.813.813 0 0 1 .254.082c.035.02.069.042.101.066l-.055.078a.058.058 0 0 1-.018.017.06.06 0 0 1-.027.007.075.075 0 0 1-.036-.01.654.654 0 0 1-.06-.032l.003.002a.459.459 0 0 0-.074-.033l-.004-.001a.627.627 0 0 0-.102-.027l-.005-.001a.861.861 0 0 0-.139-.011h-.015a.674.674 0 0 0-.221.037l.005-.001a.434.434 0 0 0-.276.254l-.001.003a.586.586 0 0 0 .001.424l-.001-.004a.502.502 0 0 0 .285.259c.074.022.151.03.229.025zm1.843-.02h.631v.144h-.824v-1.261h.197l-.004 1.117zm1.288.144h-.197v-1.261h.197v1.261zm.736-1.255a.086.086 0 0 1 .03.023l.845.95-.001-.022.001-.023v.001-.94h.172v1.266H24.323a.09.09 0 0 1-.037-.008h.001a.103.103 0 0 1-.031-.024l-.844-.95v.98h-.165V17.03h.103c.011 0 .022.002.032.006zm2.504-.006v.139h-.701v.416h.568v.134h-.568v.431h.701v.139h-.904v-1.258h.904zM5.162 9.245l8.781 2.152v7.543l-8.781-2.151V9.245zm-.564-.644v8.554l9.906 2.429v-8.553l-9.906-2.43z"/><path  d="M9.908 23.555 0 21.124v-8.553l9.908 2.43v8.554z"/><path d="m4.763 9.148 8.667 2.126-3.685 3.183-8.668-2.127 3.687-3.182zm-.165-.546L0 12.571l9.908 2.431 4.597-3.97-9.906-2.43zm5.867 14.472 4.04-3.489-4.04-.991v4.48z"/></symbol><symbol id="icon-logo4" viewBox="0 0 32 32"><path  d="M4.949 13.027h-.001c-.903 0-1.635.65-1.635 1.453v.001c0 .802.732 1.453 1.635 1.453h.001c.903 0 1.635-.651 1.635-1.453v-.001c0-.803-.732-1.453-1.635-1.453zm12.066-.464c-.003-1.114-.502-2.183-1.388-2.971s-2.088-1.232-3.342-1.234c-1.254.002-2.457.446-3.344 1.234s-1.387 1.856-1.389 2.971v6.145s9.462-.937 9.463-6.144v-.001zM0 20.725c.002.776.35 1.518.967 2.067s1.453.857 2.325.859c.872-.002 1.708-.311 2.325-.859s.965-1.291.967-2.066V16.45S0 17.102 0 20.725zm3.292.765a.942.942 0 0 1-.479-.129.792.792 0 0 1-.315-.339l-.002-.005a.681.681 0 0 1-.048-.447l-.001.005a.737.737 0 0 1 .236-.392.89.89 0 0 1 .436-.209l.005-.001a.98.98 0 0 1 .504.045l-.007-.002c.158.058.293.156.387.282s.145.274.145.425a.685.685 0 0 1-.065.294.775.775 0 0 1-.186.249l-.001.001a.869.869 0 0 1-.28.167.945.945 0 0 1-.33.059H3.29v-.003zm6.654-.421h-.635v.656H8.98v-1.606h1.046v.268h-.715v.415h.635v.267zm1.59-.11c0 .158-.028.297-.084.416a.631.631 0 0 1-.586.373h-.012.001a.641.641 0 0 1-.598-.366l-.002-.004a.932.932 0 0 1-.087-.397v-.014.001-.079c0-.158.029-.297.085-.417a.631.631 0 0 1 .599-.374.632.632 0 0 1 .598.374.96.96 0 0 1 .086.416v.072zm-.335-.074c0-.168-.03-.296-.09-.384a.294.294 0 0 0-.245-.131h-.014.001-.013a.293.293 0 0 0-.244.13l-.001.001c-.06.086-.091.212-.091.379v.078c0 .164.03.291.09.381s.147.136.261.136h.013a.29.29 0 0 0 .242-.129l.001-.001c.059-.087.09-.215.09-.382v-.078zm1.408.418v-.009a.167.167 0 0 0-.066-.133.84.84 0 0 0-.238-.106 1.658 1.658 0 0 1-.282-.115l.01.005c-.183-.099-.274-.232-.274-.398 0-.087.024-.164.073-.232.049-.069.12-.122.211-.16s.195-.057.309-.057c.115 0 .217.021.307.063s.159.099.208.175c.05.075.075.162.075.258h-.331a.216.216 0 0 0-.069-.171.283.283 0 0 0-.195-.062.301.301 0 0 0-.189.052.16.16 0 0 0-.067.131v.004c0 .052.026.096.078.131s.131.068.233.099c.188.056.325.127.411.211s.129.188.129.313c0 .139-.053.248-.158.328s-.246.118-.424.118a.83.83 0 0 1-.338-.068.548.548 0 0 1-.232-.184l-.001-.002a.47.47 0 0 1-.079-.264v-.011.001h.332c0 .177.106.266.318.266.079 0 .14-.016.184-.047a.159.159 0 0 0 .066-.128v-.007zm1.766-.916h-.492v1.338h-.331v-1.338h-.485v-.268h1.308v.268zm1.156.642h-.635v.43h.745v.266h-1.076v-1.606h1.074v.268h-.744v.383h.635v.259zm.899.108h-.264v.588h-.331v-1.606h.597c.19 0 .336.043.439.127s.154.204.154.358c0 .11-.024.201-.072.275a.484.484 0 0 1-.212.173l-.003.001.347.656v.015h-.355l-.301-.587zm-.264-.268h.267a.275.275 0 0 0 .193-.063.227.227 0 0 0 .068-.163v-.013.001c0-.076-.021-.136-.065-.179s-.108-.065-.198-.065h-.266v.482zm2.005.29v.566h-.331v-1.606h.626c.12 0 .227.022.318.066s.163.107.212.189a.524.524 0 0 1 .074.277c0 .157-.054.282-.162.373s-.256.136-.447.136h-.29zm0-.268h.296c.088 0 .154-.021.2-.062.047-.041.07-.1.07-.177v-.012a.26.26 0 0 0-.07-.179.263.263 0 0 0-.192-.075h-.303v.504zm2.093.138h-.635v.43h.745v.266h-1.076v-1.606h1.074v.268h-.744v.383h.635v.259zm1.536-.642h-.492v1.338h-.331v-1.338h-.485v-.268H21.8v.268zm1.156.642h-.635v.43h.745v.266h-1.077v-1.606h1.074v.268h-.743v.383h.635v.259zm.899.108h-.264v.588h-.331v-1.606h.597c.19 0 .336.043.439.127s.154.204.154.358c0 .11-.024.201-.072.275a.484.484 0 0 1-.212.173l-.003.001.347.656v.015h-.355l-.301-.587zm-.264-.268h.267a.275.275 0 0 0 .193-.063.226.226 0 0 0 .069-.163v-.013.001a.239.239 0 0 0-.065-.179c-.043-.043-.108-.065-.197-.065h-.266v.482zm1.945.435v-.009a.169.169 0 0 0-.066-.134.84.84 0 0 0-.238-.106 1.658 1.658 0 0 1-.282-.115l.01.005c-.183-.099-.274-.232-.274-.398 0-.087.024-.164.073-.232.049-.069.12-.122.211-.16s.195-.057.309-.057c.115 0 .217.021.307.063s.159.099.208.175c.05.075.075.162.075.258h-.331a.216.216 0 0 0-.069-.171.283.283 0 0 0-.195-.062.301.301 0 0 0-.189.052.16.16 0 0 0-.068.131v.004c0 .052.026.096.079.131s.131.068.233.099c.188.056.325.127.411.211s.129.188.129.313c0 .139-.053.248-.158.328s-.247.118-.424.118a.83.83 0 0 1-.338-.068.548.548 0 0 1-.232-.184l-.001-.002a.47.47 0 0 1-.079-.264v-.011.001h.332c0 .177.106.266.318.266.079 0 .14-.016.184-.047a.159.159 0 0 0 .066-.128v-.006z"/></symbol><symbol id="icon-logo5" viewBox="0 0 32 32"><path  d="M2.434 24.558a.852.852 0 0 1 .188.548l.001.043c0 .258-.112.49-.291.649l-.001.001a1.259 1.259 0 0 1-.846.253H-.001v-3.474h1.455a1.24 1.24 0 0 1 .81.233l-.004-.002a.792.792 0 0 1 .283.608l-.001.044v-.002a.812.812 0 0 1-.169.532.79.79 0 0 1-.443.271.842.842 0 0 1 .502.297zm-1.742-.525h.621a.581.581 0 0 0 .396-.116.412.412 0 0 0 .135-.305l-.002-.036v.002l.001-.029a.422.422 0 0 0-.133-.309.6.6 0 0 0-.41-.117h.002-.611v.911zm1.078 1.332a.431.431 0 0 0 .148-.325l-.001-.029v.001l.001-.025a.44.44 0 0 0-.15-.331h-.001a.635.635 0 0 0-.382-.127l-.043.001h.002-.651v.955h.661a.657.657 0 0 0 .418-.12zm3.639.686-.81-1.358h-.304v1.358h-.696v-3.474h1.318a1.294 1.294 0 0 1 .92.297l-.002-.002a1.105 1.105 0 0 1 .095 1.44l.002-.003a1.07 1.07 0 0 1-.629.353l.862 1.388h-.757zM4.295 24.22h.569c.396 0 .593-.175.593-.526l.001-.03a.519.519 0 0 0-.146-.361.612.612 0 0 0-.395-.143l-.056.002h.002-.577l.007 1.058zm4.92 1.132H7.828l-.245.7h-.73l1.275-3.435h.789l1.269 3.435h-.73l-.24-.699zm-.186-.526-.507-1.466-.507 1.466h1.014zm4.951 1.225h-.692l-1.55-2.362v2.362h-.689v-3.474h.689l1.55 2.376v-2.376h.692v3.474zm3.945-.832a1.507 1.507 0 0 1-.617.609l-.008.004a2.037 2.037 0 0 1-.972.219h-1.231v-3.474h1.231l.053-.001c.335 0 .651.079.93.22l-.012-.005c.265.133.483.345.626.606.136.265.216.579.216.911s-.08.646-.222.923l.005-.011zm-.791-.083a1.27 1.27 0 0 0-.002-1.66l.001.002a1.193 1.193 0 0 0-.869-.295h.004-.48v2.249h.481a1.197 1.197 0 0 0 .867-.297l-.001.001zM9.648 3.254s8.923 3.382 8.734 8.277v8.278s-8.917-3.384-8.73-8.278l-.004-8.277zm16.683 14.617a12.056 12.056 0 0 1 5.616-2.093l.054-.005v-2.591a11.716 11.716 0 0 0-5.641 4.642l-.028.048z"/><path d="M25.318 18.652c1.393-2.778 3.739-4.906 6.598-5.985l.084-.028V5.172S19.292 9.99 19.561 16.959v11.786s.566-.215 1.457-.619c0-.377 0-.757.04-1.139a12.26 12.26 0 0 1 4.243-8.322l.017-.014z"/><path  d="M24.11 23.03c.067-.817.215-1.626.445-2.414a11.344 11.344 0 0 0-2.691 7.106v.013a34.921 34.921 0 0 0 2.618-1.387l-.174.094a11.912 11.912 0 0 1-.239-2.406c0-.354.015-.705.044-1.051l-.003.045zm.505.043a11.724 11.724 0 0 0 .169 3.164l-.012-.073c3.472-2.086 7.373-5.309 7.223-9.203v-.34a11.372 11.372 0 0 0-6.61 3.102l.004-.004a11.324 11.324 0 0 0-.771 3.312l-.003.041z"/></symbol><symbol id="icon-logo3" viewBox="0 0 32 32"><path  d="M5.466 31.103c.023.001.044.01.06.025l.153.161c-.119.13-.266.234-.431.304a1.533 1.533 0 0 1-.61.109h-.031a1.5 1.5 0 0 1-.554-.106l.01.004a1.25 1.25 0 0 1-.709-.725l-.003-.009a1.591 1.591 0 0 1-.097-.55v-.022.001-.023c0-.198.038-.387.108-.56l-.004.01a1.318 1.318 0 0 1 .757-.734c.188-.07.389-.104.591-.102a1.47 1.47 0 0 1 .55.093c.151.063.29.149.412.257l-.129.171a.134.134 0 0 1-.032.031.077.077 0 0 1-.045.014h-.006a.107.107 0 0 1-.056-.019l-.068-.045-.096-.059a1.024 1.024 0 0 0-.296-.101l-.006-.001a1.233 1.233 0 0 0-.209-.018h-.02.001-.016c-.147 0-.288.028-.417.079l.008-.003a.964.964 0 0 0-.333.216 1.002 1.002 0 0 0-.216.342 1.248 1.248 0 0 0-.079.452c-.002.156.025.313.079.46.046.126.119.242.212.341a.863.863 0 0 0 .318.212c.125.049.259.074.394.073.078.001.156-.004.234-.015a.879.879 0 0 0 .505-.235.115.115 0 0 1 .072-.03zm4.422-.807c.002.194-.033.387-.103.568a1.246 1.246 0 0 1-.288.44 1.314 1.314 0 0 1-.444.286l-.009.003a1.695 1.695 0 0 1-1.176-.004l.012.004a1.331 1.331 0 0 1-.45-.29 1.3 1.3 0 0 1-.288-.436l-.003-.009a1.614 1.614 0 0 1 .004-1.147l-.004.011a1.34 1.34 0 0 1 .29-.447 1.32 1.32 0 0 1 .441-.276l.009-.003A1.674 1.674 0 0 1 9.055 29l-.012-.004a1.29 1.29 0 0 1 .741.729c.071.182.106.376.104.571zm-.402 0v-.024c0-.155-.027-.303-.076-.441l.003.009a.907.907 0 0 0-.522-.554l-.006-.002a1.219 1.219 0 0 0-.855.003l.009-.003a.903.903 0 0 0-.528.55l-.002.006a1.465 1.465 0 0 0 0 .912.899.899 0 0 0 .524.552l.006.002c.273.097.573.097.846 0a.903.903 0 0 0 .324-.214.972.972 0 0 0 .205-.341 1.29 1.29 0 0 0 .073-.456zm3.418.478.041.102c.015-.036.028-.069.044-.102.017-.04.034-.073.052-.105l-.002.005.978-1.694c.019-.03.037-.048.056-.053a.234.234 0 0 1 .066-.009h.015-.001.289v2.755H14.1v-2.111l-.001-.048.001-.05v.002l-.984 1.718a.149.149 0 0 1-.057.062h-.001a.16.16 0 0 1-.082.022h-.057a.151.151 0 0 1-.141-.084v-.001l-1.013-1.73v2.212h-.331v-2.75h.303a.22.22 0 0 1 .068.01h-.002a.107.107 0 0 1 .053.052v.001l.999 1.696c.018.028.035.06.048.094l.001.004zm3.682-.136v1.031h-.383v-2.75h.887c.158 0 .311.022.455.063l-.012-.003a.927.927 0 0 1 .337.171c.085.074.15.167.191.27a.925.925 0 0 1 .066.352.84.84 0 0 1-.071.352.772.772 0 0 1-.205.274l-.001.001a.953.953 0 0 1-.333.181l-.007.002a1.498 1.498 0 0 1-.461.064l-.463-.007zm0-.296h.464c.1.002.201-.013.296-.042a.627.627 0 0 0 .215-.12l-.001.001c.056-.049.1-.11.129-.178L17.69 30a.565.565 0 0 0 .046-.225v-.008l.001-.028a.506.506 0 0 0-.041-.199l.001.003a.544.544 0 0 0-.133-.188.763.763 0 0 0-.517-.148h.003-.464v1.134zm5.145 1.331h-.308a.134.134 0 0 1-.079-.026.168.168 0 0 1-.049-.063v-.001l-.26-.665h-1.307l-.27.665a.152.152 0 0 1-.047.061.135.135 0 0 1-.082.028h-.307l1.148-2.756h.398l1.164 2.756zm-1.895-1.023h1.079l-.455-1.122a1.845 1.845 0 0 1-.083-.245l-.003-.013-.044.144a1.282 1.282 0 0 1-.045.126l.003-.009-.452 1.119zm3.549-1.72c.023.013.043.03.058.05l1.674 2.076v-2.138h.342v2.756h-.196a.164.164 0 0 1-.074-.017h.001a.233.233 0 0 1-.061-.051l-1.674-2.075a.753.753 0 0 1 0 .095v2.049h-.342v-2.756h.203c.024 0 .047.004.068.013zm4.896 1.647v1.094h-.383v-1.094l-1.058-1.66H27.19c.028 0 .054.009.075.024a.251.251 0 0 1 .052.061l.001.001.662 1.07a1.363 1.363 0 0 1 .116.244l.05-.118a.93.93 0 0 1 .068-.13l-.002.004.653-1.078a.284.284 0 0 1 .05-.059.117.117 0 0 1 .076-.027h.352l-1.06 1.667zm-15.566-6.284c.167.02.335.037.506.051 2.582-1.101 4.767-2.902 6.281-5.18s2.29-4.93 2.231-7.625l-2.846-2.712c.189.894.297 1.921.297 2.974 0 2.015-.396 3.937-1.115 5.694l.036-.1c-1.09 2.731-2.957 5.12-5.39 6.899z"/><path  d="m11.699 24.167.077.015c2.6-1.773 4.583-4.247 5.692-7.104.627-1.564.991-3.378.991-5.276 0-1.296-.17-2.553-.488-3.748l.023.101-4.054-3.862c1.269 2.397 2.015 5.239 2.015 8.255 0 .701-.04 1.393-.119 2.074l.008-.083c-.397 3.519-1.834 6.857-4.144 9.628zm13.749-9.443c-.688 2.962-2.361 5.632-4.77 7.616a14.98 14.98 0 0 1-2.191 1.51l-.075.039a13.579 13.579 0 0 0 5.285-2.851l-.016.013a12.774 12.774 0 0 0 3.381-4.679l.031-.084-1.645-1.565z"/><path d="m24.804 14.288-2.341-2.23a13.684 13.684 0 0 1-2.23 7.249l.032-.053c-1.394 2.169-3.373 3.943-5.729 5.137h.012c.525 0 1.049-.03 1.572-.089a14.47 14.47 0 0 0 5.649-3.95l.014-.017a13.397 13.397 0 0 0 3.005-5.958l.016-.089zM12.038 2.664 9.245 0c-2.497.919-4.644 2.535-6.16 4.636S.752 9.225.745 11.775c.01 2.818 1.005 5.552 2.829 7.77s4.372 3.793 7.242 4.476c2.562-2.973 4.061-6.647 4.281-10.488s-.851-7.648-3.059-10.87zm19.218 11.214c-.01-3.343-1.409-6.547-3.89-8.91s-5.843-3.696-9.352-3.706a13.67 13.67 0 0 0-4.741.841l17.099 16.29c.559-1.335.884-2.886.884-4.513v-.001z"/></symbol><symbol id="icon-logo2" viewBox="0 0 32 32"><path  d="M14.388 1.565h.073c.135 0 .281.013.425.026.636.045 1.268.14 1.889.285V.349C16.21.2 15.545.089 14.862.04l-.037-.002c-.22-.017-.494-.031-.77-.037h-.246c-1.32.005-2.635.174-3.913.505a15.836 15.836 0 0 0-4.151 1.689V17.34a16.42 16.42 0 0 1 3.84-1.517l.117-.026c.973-.26 2.109-.442 3.276-.508l.046-.002h.045c.188-.01.375-.015.568-.016v-1.552a18.41 18.41 0 0 0-4.445.602l.128-.029c-.523.136-1.027.283-1.5.445l-.54.183V3.111L7.51 3c1.638-.796 3.549-1.311 5.568-1.429l.041-.002.025-.001.026.001h-.001c.214-.011.43-.016.642-.016h.243c.112.003.224.005.336.012z"/><path  d="M18.192 3.164h-.014c-.793 0-1.57-.067-2.326-.195l.081.011c-.24-.041-.476-.09-.706-.142V17.81c.971.24 1.968.357 2.968.35a16.007 16.007 0 0 0 4.024-.528l-.111.025c1.574-.4 2.957-.979 4.226-1.729l-.074.04V1.093a16.509 16.509 0 0 1-3.838 1.517l-.118.026a16.743 16.743 0 0 1-4.114.528zm5.987.259.54-.181v11.812l-.231.111c-.782.383-1.701.723-2.656.969l-.103.022a14.31 14.31 0 0 1-3.531.457c-.356 0-.709-.015-1.052-.045l-.37-.033V4.387l.43.029c.313.02.637.03.989.03a18.333 18.333 0 0 0 4.611-.603l-.127.029a23.639 23.639 0 0 0 1.5-.449zM6.793 22.513a.794.794 0 0 0-.573-.243l-.029.001h.001-.012a.897.897 0 0 0-.341.067l.006-.002a.785.785 0 0 0-.442.444l-.002.005a.874.874 0 0 0-.062.335v2.023a.957.957 0 0 0 .079.415.808.808 0 0 0 .203.271.714.714 0 0 0 .277.144c.099.027.201.042.302.042a.854.854 0 0 0 .838-.851v-.226h-.53v.192c0 .06-.011.118-.032.171l.001-.003a.315.315 0 0 1-.077.114.367.367 0 0 1-.221.077.265.265 0 0 1-.247-.108l-.001-.001a.478.478 0 0 1-.071-.251v-.021.001-1.887a.643.643 0 0 1 .065-.302.27.27 0 0 1 .227-.124l.033.002h-.001.01c.092 0 .175.045.226.114l.001.001a.425.425 0 0 1 .088.26v.012-.001.175h.524v-.215a.95.95 0 0 0-.067-.351l.002.006a.853.853 0 0 0-.177-.285zm3.142-.022a.92.92 0 0 0-.917-.166.838.838 0 0 0-.483.443l-.002.005a.94.94 0 0 0-.077.392v1.94a.932.932 0 0 0 .077.397.77.77 0 0 0 .205.271.837.837 0 0 0 .279.171.914.914 0 0 0 .919-.172l-.001.001a.817.817 0 0 0 .199-.271.934.934 0 0 0 .077-.397v-1.958a.936.936 0 0 0-.08-.381l.002.006a.876.876 0 0 0-.199-.283zm-.246 2.615.001.03a.352.352 0 0 1-.106.251.388.388 0 0 1-.499 0h.001a.344.344 0 0 1-.106-.25l.001-.032v.001-1.941l-.001-.029c0-.099.041-.188.106-.251a.388.388 0 0 1 .499 0h-.001a.344.344 0 0 1 .106.25l-.001.032v-.001 1.941zm4.373.867v-3.675h-.508l-.668 1.945h-.009l-.674-1.945H11.7v3.674h.525v-2.235h.009l.514 1.58h.262l.518-1.58h.009v2.235h.525zm2.982-3.416a.727.727 0 0 0-.297-.201 1.153 1.153 0 0 0-.361-.057h-.8v3.675h.523v-1.435h.27a.968.968 0 0 0 .473-.1.779.779 0 0 0 .286-.278l.002-.003a.893.893 0 0 0 .12-.32 2.56 2.56 0 0 0 .028-.385v-.035.002a2.107 2.107 0 0 0-.051-.525.789.789 0 0 0-.193-.338zm-.27 1.12a.45.45 0 0 1-.05.194l.001-.003a.3.3 0 0 1-.133.128l-.002.001a.525.525 0 0 1-.22.047l-.028-.001h.001-.239v-1.249h.27l.025-.001c.077 0 .149.017.214.048l-.003-.001a.299.299 0 0 1 .122.134l.001.002a.537.537 0 0 1 .046.205v.244c0 .085.005.174 0 .252h-.005zm2.75-1.378h-.429l-.81 3.675h.524l.154-.789h.714l.154.789h.523l-.829-3.675zm-.483 2.384.258-1.332h.01l.256 1.332h-.523zm3.866-.171h-.01l-.791-2.213h-.503v3.675h.523v-2.21h.011l.8 2.209h.493v-3.674h-.523v2.213zm3.199-2.213-.421 1.461h-.011l-.421-1.461h-.554l.719 2.122v1.553h.523v-1.553l.719-2.121h-.555zM5.333 27.011h.252v.708h.171v-.708h.251v-.145h-.674v.146zm2.121-.146-.331.853h.182l.07-.194h.34l.073.194h.187l-.339-.853h-.182zm-.026.516.116-.316.116.316h-.232zm2.123.023h.197v.11a.326.326 0 0 1-.203.072h-.012a.218.218 0 0 1-.169-.081.352.352 0 0 1-.063-.203l.001-.02v.001c0-.19.082-.285.245-.285l.018-.001a.18.18 0 0 1 .174.136v.001l.169-.033c-.036-.166-.156-.251-.362-.251h-.011a.43.43 0 0 0-.287.11.415.415 0 0 0-.123.329v-.001.02c0 .115.041.22.11.301l-.001-.001a.411.411 0 0 0 .297.126l.027-.001h-.001.014a.51.51 0 0 0 .348-.137v-.336h-.37v.144zm2.141-.539h-.173v.853h.597v-.145h-.425v-.708zm1.81 0h-.172v.853h.172v-.853zm1.771.57-.35-.57h-.167v.853h.16v-.557l.343.557h.172v-.853h-.158v.57zm1.6-.093h.425v-.145h-.425v-.187h.457v-.146h-.63v.853h.647v-.145h-.475v-.231zm3.88-.14h-.336v-.336h-.171v.853h.171v-.373h.336v.373h.172v-.853h-.172v.337zm1.61.14h.427v-.145h-.427v-.187h.459v-.146h-.629v.853h.646v-.145h-.475v-.231zm2.183.001c.149-.023.224-.102.224-.237l.001-.024a.205.205 0 0 0-.085-.166h-.001a.478.478 0 0 0-.216-.051l-.035.001h.002-.362v.853h.172v-.357h.048c.034 0 .066.007.094.02l-.001-.001a.181.181 0 0 1 .061.062l.186.271h.205l-.104-.166a.598.598 0 0 0-.187-.203l-.002-.001zm-.173-.118h-.126v-.214h.135l.036-.001c.049 0 .097.008.141.023l-.003-.001c.023.021.037.05.037.083a.114.114 0 0 1-.045.09.464.464 0 0 1-.142.021l-.033-.001h.002zm1.819.117h.425v-.145h-.425v-.187h.459v-.146h-.631v.853h.647v-.145h-.475v-.231z"/></symbol><symbol id="icon-logo1" viewBox="0 0 32 32"><path  d="m5.44 0 4.677 4.428h13.046v12.351l4.677 4.428V.001H5.44z"/><path  d="M1.6 4.241v20.6h21.76v-8.188L10.255 4.246 1.6 4.241zm17.615 17.587H5.043V7.973h1.002V20.89h13.17v.938zM7.866 28.662l.524-1.078h.438l-.764 1.437v.838h-.397v-.838l-.764-1.437h.439l.524 1.078zm2.247.667h-.881l-.184.53h-.411l.859-2.275h.355l.861 2.275h-.413l-.186-.53zm-.77-.319h.659l-.33-.944-.33.944zm2.328.234c0-.105.029-.202.086-.289.058-.089.17-.193.339-.314a1.498 1.498 0 0 1-.182-.276l-.004-.008a.568.568 0 0 1-.052-.226c0-.179.054-.319.163-.422s.254-.156.437-.156a.57.57 0 0 1 .406.147c.106.097.16.218.16.361v.003a.497.497 0 0 1-.074.262l.001-.002a.858.858 0 0 1-.233.236l-.003.002-.155.113.44.518a.914.914 0 0 0 .095-.417h.33c0 .28-.065.509-.196.689l.334.396h-.44l-.128-.152a.93.93 0 0 1-.558.183h-.025.001c-.225 0-.405-.06-.54-.179a.597.597 0 0 1-.202-.447v-.021.001zm.753.343a.58.58 0 0 0 .359-.128l-.497-.586-.049.035c-.125.095-.188.203-.188.325 0 .105.034.191.102.256a.375.375 0 0 0 .254.099h.019-.001zm-.21-1.466c0 .088.054.197.161.33l.173-.118.049-.039a.283.283 0 0 0 .097-.212v-.011a.2.2 0 0 0-.067-.149.233.233 0 0 0-.162-.064h-.019a.224.224 0 0 0-.167.075.276.276 0 0 0-.066.179v.01zm4.134.997c-.023.243-.113.432-.269.568s-.364.204-.623.204a.902.902 0 0 1-.48-.128.86.86 0 0 1-.317-.362l-.002-.005a1.302 1.302 0 0 1-.117-.544v-.22c0-.214.038-.403.114-.567a.871.871 0 0 1 .326-.378.913.913 0 0 1 .494-.133c.251 0 .453.068.606.205s.243.329.268.578h-.394c-.019-.163-.067-.281-.144-.353-.076-.073-.188-.109-.336-.109a.464.464 0 0 0-.397.189c-.092.125-.138.309-.141.552v.202c0 .246.044.433.132.563s.218.194.387.194c.155 0 .272-.035.35-.105s.128-.186.148-.348h.394zm2.17-.338c0 .223-.038.419-.115.588a.88.88 0 0 1-.332.388.905.905 0 0 1-.494.134.92.92 0 0 1-.493-.134.897.897 0 0 1-.332-.38l-.002-.006a1.335 1.335 0 0 1-.119-.555v-.023.001-.128c0-.222.038-.418.117-.588s.19-.3.333-.389c.144-.091.308-.136.493-.136s.35.045.493.134c.143.089.255.217.333.384s.118.362.118.584v.126zm-.396-.118c0-.252-.048-.445-.143-.58a.465.465 0 0 0-.384-.202l-.022.001h.001-.016a.468.468 0 0 0-.384.2l-.001.002c-.096.133-.145.323-.147.567v.131c0 .25.049.444.146.58s.233.205.406.205c.175 0 .31-.067.403-.2.095-.133.142-.328.142-.584v-.118z"/></symbol><symbol id="linkedin" viewBox="0 0 32 32"><path  d="M31.992 32H32V20.262c0-5.741-1.237-10.163-7.947-10.163-3.227 0-5.392 1.77-6.277 3.45h-.093v-2.914h-6.365v21.363h6.627V21.42c0-2.786.528-5.48 3.978-5.48 3.398 0 3.448 3.179 3.448 5.658V32h6.621zM.528 10.635h6.635V32H.528V10.635zM3.843 0A3.843 3.843 0 0 0 0 3.843c0 2.12 1.722 3.878 3.843 3.878 2.12 0 3.842-1.757 3.842-3.878S5.965.002 3.844 0z"/></symbol><symbol id="facebook" viewBox="0 0 32 32"><path  d="M21.328 5.312h2.923V.224A36.483 36.483 0 0 0 20.143 0h-.156.008c-4.213 0-7.099 2.65-7.099 7.52V12H8.25v5.688h4.646V32h5.699V17.69h4.459l.707-5.688h-5.168V8.08c0-1.643.443-2.768 2.734-2.768z"/></symbol><symbol id="twitter" viewBox="0 0 32 32"><path d="M32 6.078c-1.1.493-2.376.857-3.713 1.028l-.068.007a6.556 6.556 0 0 0 2.873-3.579l.013-.046a12.88 12.88 0 0 1-4.076 1.573l-.084.014A6.558 6.558 0 0 0 15.6 9.557v.004c0 .52.043 1.021.152 1.496-5.454-.266-10.28-2.88-13.522-6.861a6.524 6.524 0 0 0-.902 3.313v.001a6.57 6.57 0 0 0 2.914 5.451 6.453 6.453 0 0 1-2.994-.823l.033.017v.072a6.592 6.592 0 0 0 5.213 6.44l.043.008a6.403 6.403 0 0 1-1.662.215h-.061.003c-.419 0-.843-.024-1.242-.112.85 2.598 3.261 4.509 6.13 4.57a13.093 13.093 0 0 1-8.122 2.8H1.57h.001-.062c-.531 0-1.055-.034-1.569-.099l.061.006c2.826 1.846 6.287 2.944 10.004 2.944h.063-.003c12.072 0 18.672-10 18.672-18.669 0-.288-.01-.57-.024-.848a13.203 13.203 0 0 0 3.258-3.355l.03-.047z"/></symbol><symbol id="instagram" viewBox="0 0 32 32"><path  d="M31.968 9.408c-.074-1.701-.349-2.869-.744-3.882a7.84 7.84 0 0 0-1.847-2.837l-.001-.001A7.906 7.906 0 0 0 26.598.861l-.054-.018C25.523.449 24.362.176 22.661.101 20.949.019 20.405 0 16.059 0c-4.344 0-4.888.019-6.595.094-1.701.074-2.869.349-3.88.742a7.847 7.847 0 0 0-2.839 1.85l-.001.001A7.9 7.9 0 0 0 .919 5.465l-.018.054C.506 6.538.232 7.7.157 9.401c-.082 1.712-.101 2.256-.101 6.602 0 4.344.019 4.888.094 6.595.075 1.701.35 2.869.744 3.882a7.915 7.915 0 0 0 1.849 2.837l.001.001c.8.813 1.77 1.443 2.832 1.843 1.019.395 2.182.67 3.882.744 1.707.075 2.251.094 6.595.094 4.346 0 4.89-.019 6.595-.094 1.701-.074 2.869-.349 3.882-.742a8.237 8.237 0 0 0 4.664-4.628l.019-.055c.394-1.019.669-2.182.744-3.882.075-1.707.093-2.251.093-6.595s-.006-4.888-.08-6.595zm-2.88 13.066c-.07 1.563-.333 2.406-.552 2.97a5.336 5.336 0 0 1-3.001 3.024l-.036.013c-.563.219-1.413.482-2.97.55-1.688.075-2.194.094-6.464.094-4.269 0-4.782-.019-6.464-.094-1.563-.069-2.406-.331-2.97-.55a4.953 4.953 0 0 1-1.836-1.192l-.001-.001a4.978 4.978 0 0 1-1.184-1.803l-.011-.034c-.218-.563-.48-1.413-.549-2.97-.075-1.688-.094-2.195-.094-6.464 0-4.27.019-4.784.094-6.464.069-1.563.331-2.406.549-2.97a4.897 4.897 0 0 1 1.198-1.837l.002-.002a4.972 4.972 0 0 1 1.806-1.182l.034-.011c.56-.219 1.411-.48 2.968-.55 1.688-.074 2.194-.093 6.464-.093 4.275 0 4.782.019 6.464.093 1.562.069 2.406.331 2.97.55a4.91 4.91 0 0 1 1.837 1.194c.531.52.938 1.144 1.195 1.84.218.56.48 1.411.549 2.968.075 1.688.094 2.194.094 6.464 0 4.269-.019 4.768-.094 6.458z"/><path  d="M16.059 7.782a8.223 8.223 0 0 0-8.219 8.221v.002a8.222 8.222 0 1 0 16.444 0 8.222 8.222 0 0 0-8.222-8.222h-.002zm0 13.552a5.333 5.333 0 0 1 .001-10.666h.001a5.334 5.334 0 1 1 0 10.668zM26.525 7.458a1.92 1.92 0 0 1-3.84 0 1.92 1.92 0 0 1 3.84 0z"/></symbol><symbol id="smartphone" viewBox="0 0 32 32"><path  d="M23 0H9C7.346 0 6 1.346 6 3v26c0 1.654 1.346 3 3 3h14c1.654 0 3-1.346 3-3V3c0-1.654-1.346-3-3-3zM9 2h14a1 1 0 0 1 1 1v21H8V3a1 1 0 0 1 1-1zm14 28H9a1 1 0 0 1-1-1v-3h16v3a1 1 0 0 1-1 1z"/><path d="M10.708 27.478a.889.889 0 0 1 .001 1.319l-.001.001a1.048 1.048 0 0 1-1.417 0l.001.001a.889.889 0 0 1-.001-1.319l.001-.001a1.048 1.048 0 0 1 1.417 0l-.001-.001z"/></symbol><symbol id="envelope" viewBox="0 0 32 32"><path  d="M29 4H3C1.346 4 0 5.346 0 7v18c0 1.654 1.346 3 3 3h26c1.654 0 3-1.346 3-3V7c0-1.654-1.346-3-3-3zm0 2c.136 0 .266.028.384.078L16 17.678 2.616 6.078A.971.971 0 0 1 3 6h26zm0 20H3a1 1 0 0 1-1-1V8.19l13.344 11.566a.997.997 0 0 0 1.313-.001l-.001.001L30 8.19V25a1 1 0 0 1-1 1z"/></symbol><symbol id="astronaut" viewBox="0 0 32 32"><path fill="#2196f3" style="fill:var(--color2, #2196f3)" d="M31.974 4.524a.535.535 0 0 0-.427-.362h-.003l-1.911-.278-.855-1.731c-.179-.365-.777-.365-.956 0l-.855 1.731-1.911.278a.534.534 0 0 0-.296.91l1.383 1.348-.326 1.903a.532.532 0 0 0 .774.562l1.709-.899 1.709.899a.534.534 0 0 0 .773-.565v.003l-.326-1.903 1.383-1.348a.535.535 0 0 0 .134-.55l.001.004zm-2.463 1.327a.53.53 0 0 0-.153.472l.191 1.114-1-.526a.525.525 0 0 0-.501.001l.003-.001-1 .526.191-1.114a.53.53 0 0 0-.152-.472l-.811-.789 1.119-.163a.532.532 0 0 0 .402-.292l.5-1.013.5 1.013a.532.532 0 0 0 .402.292l1.119.162-.809.79zm-3.377 14.671h-1.067v1.067h1.067v-1.067zm0 2.134h-1.067v1.066h1.067v-1.066zm1.066-1.067h-1.067v1.067H27.2v-1.067zm-2.133 0H24v1.067h1.067v-1.067zm-2.667 4.8h-1.067v1.067H22.4v-1.067zm0 2.134h-1.067v1.067H22.4v-1.067zm1.067-1.067H22.4v1.067h1.067v-1.067zm-2.133 0h-1.067v1.067h1.067v-1.067zM16 24.256h-1.066v1.067H16v-1.067zm0 2.133h-1.066v1.067H16v-1.067zm1.067-1.067H16v1.067h1.067v-1.067zm-2.133 0h-1.067v1.067h1.067v-1.067zm-9.067-19.2H4.801v1.066h1.066V6.122zm0 2.134H4.801v1.066h1.066V8.256zm1.066-1.067H5.866v1.067h1.066V7.189zm-2.133 0H3.733v1.067H4.8V7.189z"/><path fill="#212121" style="fill:var(--color4, #212121)" d="M24.715 14.16a1.774 1.774 0 0 0-1.179-.703l-.009-.001a1.769 1.769 0 0 0-1.344.355l.004-.003-1.253.96-1.898 1.417-1.358-.541c2.421-1.086 4.113-3.508 4.113-6.32 0-3.823-3.122-6.934-6.961-6.934S7.869 5.5 7.869 9.324c0 1.386.415 2.674 1.12 3.759l-2.768-.024c-.009 0-.016.005-.023.005a.511.511 0 0 0-.159.033l.004-.001c-.013.005-.026.007-.038.013-.006.003-.013.003-.019.006l-3.233 1.596-.001.001-1.893.91a.429.429 0 0 0-.064.036l.001-.001a1.782 1.782 0 0 0-.594 2.306l-.005-.01c.22.424.592.742 1.043.885l.013.003a1.772 1.772 0 0 0 1.388-.133l-.009.005 1.388-.738 2.264-1.169 1.357-.008-5.442 5.415-.001.001-1.339 1.333a1.643 1.643 0 0 0-.491 1.173v.005a1.668 1.668 0 0 0 1.667 1.664h.002a1.67 1.67 0 0 0 1.18-.485l1.314-1.309 1.741-1.3.901.897-3.102 3.088a1.645 1.645 0 0 0-.491 1.174v.004a1.662 1.662 0 0 0 1.666 1.664h.003a1.67 1.67 0 0 0 1.18-.485l4.488-4.472c.007-.006.016-.009.022-.016l5.166-5.658 3.471.494a.474.474 0 0 0 .262-.032c.017-.006.032-.015.049-.023.019-.01.039-.015.058-.027l3.213-2.133c.012-.008.018-.021.029-.03.013-.01.029-.014.041-.026l1.271-1.191c.348-.326.564-.787.564-1.3 0-.4-.132-.769-.355-1.066l.003.005zM2.13 17.77a.706.706 0 0 1-.564.05l.005.001a.717.717 0 0 1-.214-1.258l.002-.001 1.314-.632.316.924.133.389-.992.527zm3.497-1.828-1.548.8-.255-.746-.184-.537 2.027-1.001-.04 1.484zm15.1-6.62c0 .918-.219 1.785-.599 2.56l-4.181-1.899a1.865 1.865 0 0 0-.782-1.384l-.006-.004 1.464-4.86c2.377.756 4.104 2.974 4.104 5.588zm-11.789 0c0-3.235 2.644-5.867 5.894-5.867.253 0 .5.022.745.053l-1.432 4.753c-.019 0-.037-.006-.057-.006h-.001a1.872 1.872 0 0 0-1.872 1.867 1.873 1.873 0 0 0 1.872 1.867h.001c.695 0 1.295-.383 1.618-.944l3.863 1.755a5.893 5.893 0 0 1-4.737 2.389c-3.25 0-5.894-2.632-5.894-5.867zm5.957.8c0 .441-.362.8-.806.8h-.001a.804.804 0 0 1-.804-.8c0-.441.361-.8.806-.8s.806.359.806.8zM2.464 25.146a.606.606 0 0 1-.855.001.591.591 0 0 1 0-.844l.962-.959.852.848-.959.955zm3.214 3.734a.606.606 0 0 1-.855.001.591.591 0 0 1 0-.844l.963-.959.852.848-.96.955zm3.482-3.469-.001.001-1.765 1.76-.852-.848 1.765-1.757a.527.527 0 0 0 .09-.136c.007-.014.02-.026.026-.04.016-.041.019-.085.026-.128.003-.025.014-.048.014-.073 0-.035-.013-.07-.02-.105-.006-.032-.006-.064-.019-.096a.536.536 0 0 0-.092-.138c-.01-.012-.014-.027-.025-.038h-.001l-.001-.002-1.607-1.6c-.017-.017-.039-.024-.058-.038a.563.563 0 0 0-.084-.057l-.003-.001a.453.453 0 0 0-.09-.031l-.003-.001a.502.502 0 0 0-.101-.02h-.002l-.023-.001a.603.603 0 0 0-.075.005h.003c-.036.005-.069.009-.104.021a.502.502 0 0 0-.096.046l.002-.001c-.02.011-.043.015-.061.029l-1.774 1.324-.901-.897 2.399-2.386 4.36 4.289-.928.919zm6.819-7.017c-.016-.002-.03.004-.046.003l-.027-.001a.562.562 0 0 0-.092.008h.003a.484.484 0 0 0-.187.07l.002-.001a.528.528 0 0 0-.083.062c-.013.011-.028.016-.04.029l-4.698 5.146-4.328-4.256 2.833-2.818a.535.535 0 0 0-.378-.911h-.002l-2.219.013.028-1.607 3.104.027a6.928 6.928 0 0 0 4.978 2.101h.003c.438 0 .864-.046 1.28-.122.04.032.08.064.129.085l2.41.96.152.759.178.885-3.003-.427zm4.041.178-.313-1.558 1.446-1.08.946 1.257-2.08 1.381zm3.753-2.831-.837.785-.931-1.237.831-.637a.735.735 0 0 1 .543-.143.718.718 0 0 1 .621.71.71.71 0 0 1-.226.521z"/><path fill="#212121" style="fill:var(--color4, #212121)" d="m13.602 18.544-2.143-2.134a.53.53 0 0 0-.752 0l-2.143 2.133a.535.535 0 0 0 0 .756l2.142 2.134a.53.53 0 0 0 .752 0l2.143-2.134a.532.532 0 0 0 0-.756zm-2.519 1.759-1.387-1.381 1.386-1.381 1.387 1.381-1.387 1.381zm6.081-15.232-.258 1.036c.071.018 1.738.452 1.738 2.149h1.067c0-2.017-1.666-2.965-2.547-3.184zm2.547 4.251h-1.067v1.066h1.067V9.322z"/></symbol><symbol id="diagram" viewBox="0 0 32 32"><path fill="#2196f3" style="fill:var(--color2, #2196f3)" d="M14.926 14.965h1.066v4.798h-1.066v-4.798zm4.264 2.132h1.066v2.665H19.19v-2.665zm-8.529 1.599h1.066v1.066h-1.066v-1.066zm-3.198-.533h1.066v1.599H7.463v-1.599z"/><path fill="#212121" style="fill:var(--color4, #212121)" d="M1.599 28.291h25.586a1.6 1.6 0 0 0 1.599-1.599V24.56a1.6 1.6 0 0 0-1.599-1.599h-.533V9.667l3.028-2.868a1.608 1.608 0 1 0-.742-.752l-.004-.01-2.281 2.162v-1.23a1.6 1.6 0 0 0-1.599-1.599H3.731a1.6 1.6 0 0 0-1.599 1.599v15.992h-.533A1.6 1.6 0 0 0 0 24.56v2.132a1.6 1.6 0 0 0 1.599 1.599zM30.384 4.837a.533.533 0 0 1 0 1.066.533.533 0 0 1 0-1.066zM3.198 6.969c0-.294.239-.533.533-.533h21.323c.294 0 .533.239.533.533v2.239l-1.066 1.013V8.036a.534.534 0 0 0-.534-.534H4.798a.534.534 0 0 0-.534.533v13.327c0 .294.239.533.534.533h19.189a.534.534 0 0 0 .534-.533v-9.675l1.066-1.01V22.96H3.198V6.969zm4.798 6.93h-.005a1.6 1.6 0 1 0 1.112 2.748l1.853.93a.535.535 0 0 0 .636-.122l3.939-4.432 3.872 2.902a.534.534 0 0 0 .686-.039l3.365-3.188v8.131H5.331V8.568h18.123v2.661l-3.771 3.572-3.904-2.927a.534.534 0 0 0-.718.071v.001l-3.993 4.493-1.493-.746c.011-.064.017-.128.02-.193a1.6 1.6 0 0 0-1.599-1.599zm.533 1.599a.533.533 0 0 1-1.066 0 .533.533 0 0 1 1.066 0zm3.198 8.528h5.33v.533a.533.533 0 0 1-.533.533h-4.265a.533.533 0 0 1-.533-.533v-.533zm-10.66.534c0-.294.238-.533.533-.533h9.062v.533a1.6 1.6 0 0 0 1.599 1.599h4.265a1.6 1.6 0 0 0 1.599-1.599v-.533h9.062c.294 0 .533.239.533.533v2.132a.533.533 0 0 1-.533.533H1.601a.533.533 0 0 1-.533-.533V24.56z"/></symbol><symbol id="clock" viewBox="0 0 32 32"><path fill="#212121" style="fill:var(--color4, #212121)" d="M31.296 15.301C31.295 6.849 24.441-.002 15.988 0S.685 6.855.687 15.308c.002 6.788 4.422 12.543 10.54 14.545l.108.031a.667.667 0 0 0 .529-.065.636.636 0 0 0 .283-.357l3.865-12.25a1.913 1.913 0 1 0-.852-3.63l.011-.005-5.106-5.107a.638.638 0 0 0-.902.902l5.103 5.109a1.873 1.873 0 0 0 .533 2.306l.004.003-3.683 11.673C3.842 25.782.116 17.709 2.796 10.431S13.55-.573 20.828 2.108c7.278 2.681 11.004 10.754 8.323 18.032-1.345 3.581-4.003 6.406-7.374 7.938l-.088.036-.398-1.874a.639.639 0 0 0-1.049-.343l.001-.001-3.837 3.426a.637.637 0 0 0 .227 1.083l.005.001 4.899 1.563a.637.637 0 0 0 .818-.744l.001.004-.391-1.839c5.528-2.374 9.329-7.772 9.329-14.057v-.034.002zm-15.304-.637a.638.638 0 0 1 0 1.276.638.638 0 0 1 0-1.276zm2.1 14.864 2.184-1.948.603 2.84-2.787-.892z"/><path fill="#2196f3" style="fill:var(--color2, #2196f3)" d="M15.354 3.185V4.46a.638.638 0 0 0 1.276 0V3.185a.638.638 0 1 0-1.276 0zM3.876 14.664a.638.638 0 0 0 0 1.276h1.275a.638.638 0 0 0 0-1.276H3.876zm24.232 1.275a.638.638 0 0 0 0-1.276h-1.275a.638.638 0 0 0 0 1.276h1.275z"/></symbol><symbol id="antenna" viewBox="0 0 32 32"><path fill="#212121" style="fill:var(--color4, #212121)" d="m30.773 22.098-8.443-8.505.937-4.616c.225.09.485.144.758.146h.033a2.16 2.16 0 1 0-2.029-1.42l-.005-.015-4.96.606L8.973.161a.53.53 0 0 0-.376-.16.536.536 0 0 0-.373.155L6.712 1.66a.535.535 0 0 0 0 .754l.814.825C6.383 5.301 5.71 7.761 5.71 10.378c0 4.106 1.656 7.824 4.336 10.525l-.001-.001a.49.49 0 0 0 .146.097 2.986 2.986 0 0 0-.052.546v6.188h-6.4a2.669 2.669 0 0 0-2.667 2.666v1.067c0 .295.239.534.534.534H26.14a.534.534 0 0 0 .533-.534v-1.067a2.67 2.67 0 0 0-2.666-2.666h-6.4v-2.742a14.64 14.64 0 0 0 3.047.32h.002a14.784 14.784 0 0 0 7.117-1.822l-.077.039.818.823a.534.534 0 0 0 .376.16.536.536 0 0 0 .373-.155l1.512-1.504a.535.535 0 0 0 0-.754zM23.28 6.233a1.067 1.067 0 1 1 .752 1.822h-.004a1.066 1.066 0 0 1-.747-1.822h-.002zm-1.256 3.504-.598 2.946-1.175-1.183 1.774-1.763zm-.605-.902-1.92 1.909-1.486-1.493 3.406-.416zM24.004 28.8a1.6 1.6 0 0 1 1.6 1.6v.534H2.138V30.4a1.6 1.6 0 0 1 1.6-1.6h20.267zm-7.466-2.134v1.067h-5.334v-1.067h5.334zM11.204 25.6v-4.053c0-1.294 1.196-2.346 2.667-2.346s2.667 1.053 2.667 2.346V25.6h-5.334zm6.4-1.696v-2.357c0-1.882-1.675-3.413-3.733-3.413h-.058c-1.353 0-2.54.707-3.213 1.771l-.009.016a13.817 13.817 0 0 1-3.812-9.55c0-2.314.567-4.496 1.569-6.414l-.036.077 18.602 18.709c-1.823.947-3.979 1.502-6.266 1.502-1.079 0-2.128-.124-3.136-.357l.093.018zm11.289-.684L7.836 2.039l.754-.752 7.935 7.98c.004 0 .006.007.009.01l13.115 13.191-.757.752z"/><path fill="#2196f3" style="fill:var(--color2, #2196f3)" d="M13.876 20.267h-.007a1.6 1.6 0 0 0-.003 3.2h.007a1.6 1.6 0 0 0 .002-3.2zm.373 1.978a.534.534 0 1 1-.378-.912.533.533 0 0 1 .373.911h.005z"/></symbol></defs></svg>